<?xml version="1.0" encoding="UTF-8"?>
<svg width="133.48mm" height="105.99mm" version="1.1" viewBox="0 0 133.48 105.99" xml:space="preserve" xmlns="http://www.w3.org/2000/svg"><g transform="translate(-32.843 -61.492)"><g transform="matrix(.35278 0 0 .35278 2.9517 -98.772)" fill="#e6c66c" fill-rule="evenodd"><path d="m264.45 754.74c-1.6577 0-3.0792-0.3127-4.2531-0.9321-1.1736-0.6254-2.0703-1.5394-2.684-2.7427-0.6194-1.2034-0.926-2.6546-0.926-4.3594v-2.0231c0-1.7757 0.295-3.2917 0.8906-4.5478 0.59-1.2564 1.4512-2.2122 2.5837-2.867 1.1269-0.6548 2.4892-0.9849 4.0761-0.9849 1.4983 0 2.7781 0.3775 3.8402 1.1205 1.0556 0.7493 1.8638 1.8348 2.4244 3.2502 0.5602 1.4158 0.8375 3.1206 0.8375 5.1027v1.1736l-8.3387-0.1633h-2.9634v4e-3c0 1.4863 0.3952 2.6305 1.1739 3.4209 0.7844 0.7964 1.8996 1.1976 3.3388 1.1976 0.7136 0 1.4215-0.1476 2.1233-0.4366 0.7019-0.283 1.3333-0.6902 1.8876-1.209l2.3124 2.3181c-0.8849 0.8492-1.8818 1.51-2.9906 1.9761-1.1031 0.466-2.2179 0.7019-3.3327 0.7019zm-2.7792-10.644v-3e-3h6.2181c-0.1062-1.4629-0.4837-2.6011-1.1325-3.4092-0.6491-0.8142-1.522-1.2211-2.6191-1.2211-1.333 0-2.3713 0.4363-3.1026 1.3153-0.67 0.7992-1.033 1.9052-1.0896 3.3182z"/><path d="m376.61 712.2c-1.6577 0-3.0792-0.3127-4.2531-0.932-1.1736-0.6254-2.0703-1.5394-2.684-2.7428-0.6194-1.2033-0.926-2.6545-0.926-4.3593v-2.0232c0-1.7756 0.295-3.2916 0.8906-4.5477 0.59-1.2565 1.4512-2.2123 2.5837-2.8671 1.1269-0.6547 2.4892-0.9848 4.0761-0.9848 1.4983 0 2.7781 0.3775 3.8402 1.1205 1.0556 0.7493 1.8638 1.8347 2.4244 3.2502 0.5602 1.4158 0.8375 3.1206 0.8375 5.1027v1.1735l-8.3387-0.1632h-2.9634v4e-3c0 1.4863 0.3952 2.6305 1.1739 3.4209 0.7844 0.7965 1.8996 1.1977 3.3388 1.1977 0.7136 0 1.4215-0.1477 2.1234-0.4366 0.7018-0.283 1.3333-0.6902 1.8875-1.209l2.3124 2.3181c-0.8849 0.8492-1.8818 1.51-2.9906 1.9761-1.1031 0.466-2.2179 0.7018-3.3327 0.7018zm-2.7792-10.644v-3e-3h6.2181c-0.1062-1.4629-0.4837-2.601-1.1325-3.4092-0.6491-0.8141-1.522-1.221-2.6191-1.221-1.333 0-2.3713 0.4363-3.1026 1.3152-0.67 0.7993-1.0329 1.9053-1.0896 3.3182z"/><path d="m256.35 712.2c-1.6576 0-3.0791-0.3127-4.2531-0.932-1.1736-0.6254-2.0702-1.5394-2.6839-2.7428-0.6194-1.2033-0.9261-2.6545-0.9261-4.3593v-2.0232c0-1.7756 0.295-3.2916 0.8907-4.5477 0.5899-1.2565 1.4512-2.2123 2.5837-2.8671 1.1268-0.6547 2.4892-0.9848 4.076-0.9848 1.4984 0 2.7782 0.3775 3.8402 1.1205 1.0557 0.7493 1.8638 1.8347 2.4244 3.2502 0.5602 1.4158 0.8375 3.1206 0.8375 5.1027v1.1735l-8.3387-0.1632h-2.9633v4e-3c0 1.4863 0.3952 2.6305 1.1739 3.4209 0.7844 0.7965 1.8996 1.1977 3.3387 1.1977 0.7136 0 1.4215-0.1477 2.1234-0.4366 0.7019-0.283 1.3333-0.6902 1.8875-1.209l2.3125 2.3181c-0.885 0.8492-1.8819 1.51-2.9906 1.9761-1.1032 0.466-2.218 0.7018-3.3328 0.7018zm-2.7792-10.644v-3e-3h6.2182c-0.1062-1.4629-0.4837-2.601-1.1325-3.4092-0.6491-0.8141-1.5221-1.221-2.6192-1.221-1.3329 0-2.3712 0.4363-3.1025 1.3152-0.67 0.7993-1.033 1.9053-1.0897 3.3182z"/><g transform="translate(-2.9819 30.813)"><path d="m284.49 521.04c0.317-2.7546 2.9329-7.5032 4.094-9.7754 0.8128-1.5899 1.3921-3.4167 2.122-4.7899 10.253-19.294 15.607-35.847 29.389-53.695l3.0029-3.9824c1.5343 0.0657 1.708 0.6828 2.4338 1.5464 5.2531 6.2493 7.4258 12.359 7.1778 21.141-0.2718 9.6317-3.7084 17.816-7.6787 24.77-2.8757 4.6444-6.7013 9.8201-10.894 13.344-9.4118 7.9093-14.414 10.808-29.647 11.442zm34.523-76.219c-1.531 5.2089-21.521 31.357-33.932 51.861-5.2171 8.6183-10.563 17.497-10.012 22.437 0.2745 2.4576 2.1116 4.6632 3.0741 7.2331 0.251 0.6705 0.4132 1.7229 0.8493 2.3986 0.7403 1.147 1.2053 0.2671 1.5414-0.6059 0.4945-1.2838 1.4057-2.433 1.9304-3.6397 3.2439-0.094 7.0643 0.7092 9.717 2.3471 0.8941 0.552 0.5664 0.6291 1.3509 1.1841 0.5582 0.395 0.7815 0.3876 1.4237 0.8875 3.5205 2.7413 6.4194 9.2313 7.976 14.185 7.3975 23.539 7.5043 44.498 17.895 69.794 9.2994 15.963 20.305 28.024 40.119 28.109 7.3164 0.0314 12.713-2.3836 17.808-6.3327 10.836-8.3991 14.795-25.911 12.291-39.833-1.0281-5.7167-3.0722-9.8571-5.6401-13.975-8.7374-14.013-12.48-8.7145-10.002-6.6165 1.7895 1.515 3.2545 2.2929 4.8036 4.1941 10.284 12.623 11.624 31.603 3.4516 45.665-4.0068 6.8945-11.181 13.816-22.712 13.533-5.8911-0.1448-9.2871-0.2682-14.86-3.1537-13.709-7.0987-16.706-20.618-20.231-34.227-3.7127-14.334-6.1433-29.397-10.738-43.489-2.8304-8.6818-7.3641-16.429-11.998-24.242-1.6103-2.4033-4.4432-5.2904-6.8413-6.7852-0.6482-0.4042-0.9884-0.4358-1.5673-0.7316-1.2942-0.6607 0-0.5601-1.1656-1.1432 1.4256-1.2009 1.4381-0.8523 3.3434-1.1091 3.4955-0.471 7.1562-1.5629 10.473-2.6409 4.1053-1.3343 8.4654-3.1728 12.126-5.4096 16.586-10.135 25.698-27.776 20.472-46.957-1.1298-4.1469-3.399-8.3528-5.8481-11.679-1.7398-2.3633-6.1637-8.1871-8.2519-9.2779 0.0995-1.7382 0.9919-2.1076 2.0729-3.0354 18.081-15.145 55.598-26.973 69.376-1.2656 3.4437 6.4268 5.6718 2.3368 0.8139-4.0488-1.0028-1.3185-1.9096-2.4028-2.8996-3.5677-2.5554-3.0071-7.7218-6.5985-11.266-8.1135-3.1346-1.34-6.2774-2.3654-9.9967-2.9076-15.506-2.2612-39.612 5.7808-49.522 17.399-0.417 0.489-1.4299 1.6485-2.3231 1.7434-0.4323 0.0461-0.5831-0.389-0.9791-0.3355-0.2666 0.0359-3.8937-2.5756-9.0124-4.6202-7.7976-3.1144-18.582-6.2003-22.479-6.7266-3.9262-0.5299-8.1631-0.7621-12.24-0.8123-27.113-0.3341-55.984 7.6678-70.146 33.59-36.718 66.35 64.445 88.845 67.379 22.606 0.0853-3.8689-0.1758-8.2942-1.0148-11.922-0.3516-1.5207-1.0197-3.7152-1.9495-4.5117-1.473-1.262-3.0986 0.785-2.5038 2.4963 1.3816 3.9744 2.1748 5.6038 2.3784 10.478 1.0944 26.159-23.032 47.984-48.664 36.978-6.2325-2.6759-10.449-6.0182-14.072-12.005-9.4553-15.624-5.0483-35.409 5.4308-49.138 15.148-19.846 41.382-26.731 65.404-25.301 11.409 0.6787 26.198 3.1735 36.055 9.0914 1.2146 0.7289 2.3185 1.1598 3.3131 1.947z"/><path d="m309.5 643.63h1.382c1.0447-0.7416 0.8152 0.0382 1.3473-1.175 0.2928-0.6678 0.4026-1.291 0.6155-1.9108l6.4769-18.914c0.5612-1.4986 2.8738-4.969-0.616-6.8694-0.0981 0.1161-0.127 0.1289-0.2819 0.4285l-1.6708 5.0328c-0.0278 0.0657-0.1391 0.2802-0.1625 0.3266l-0.1927 0.308c-2.4175-2.8291-3.4186-6.9106-5.068-10.701-4.7333-10.876-9.008-21.766-13.682-32.699-4.5732-10.697-9.5319-21.694-13.846-32.544-0.8219-2.0667-1.5554-3.5247-2.4456-5.4008-0.7749-1.633-1.7093-3.7806-1.974-5.7331-1.063-0.6034-0.4012 0.6447-1.0423-0.9376l-3.894-10.189c-1.2102-2.937-3.2886-8.6651-4.8963-11.076-0.3276 0.0207-9.4452 8.9036-10.759 10.038 0.5672 3.1393 1.6913 5.0833 2.9583 7.7395 4.1578 8.7175 11.257 28.747 14.571 34.352 7.976 19.181 26.579 56.584 30.162 72.307 0.3879 1.6992 2.1768 6.7069 3.0177 7.6184z"/><path d="m263.55 539.66c-1.0778 0.6506-1.4387 2.3409-1.9135 3.7545-0.2641 0.7863-0.631 1.1301-1.0045 1.7597-12.773 21.546-20.336 46.275-42.924 61.387-15.156 10.139-37.862 12.062-51.798 1.325-19.162-14.764-20.756-46.026-5.9209-64.578 5.768-7.2131 15.598-14.208 29.262-15.741 6.3237-0.7095 14.408 0.1946 19.809 2.3229 4.6757 1.8423 9.9427 5.9236 11.794 10.638l2.3785-0.2208c-0.3181-5.953-7.2533-10.468-11.876-12.718-5.8135-2.8304-13.618-3.9436-20.969-3.441-19.334 1.3223-34.78 14.62-40.731 32.364-4.0134 11.967-3.1785 19.922-0.3718 31.77 0.93 3.9256 1.8849 5.4937 3.5293 8.6998 16.344 31.864 58.804 25.94 82.125 5.0783 17.119-15.314 26.312-37.393 32.86-49.832 0.7234-1.3743-0.1597-3.0242-0.5214-4.3955-0.8592-2.2262-2.2995-6.8332-3.7269-8.1713z"/><path d="m217.87 462.22c10.247 1.1464 8.889 2.7563 12.485 4.1325 1.12 0.4287 2.1549 2.2032 2.8525 2.9244 0.8866 0.9173 1.8698 1.771 2.6911 2.8441 9.0814 11.864 14.202 35.179 20.038 41.828 1.2566-0.2759 4.8243-3.9886 5.5207-4.8783 5.8359-7.4546 3.6613-8.0434 1.18-14.53-0.9477-2.4777-1.9099-4.9761-2.9247-7.4603-1.8287-4.4776-4.6272-12.191-3.3832-17.07 0.8632-3.3862 1.7627-4.7428 4.3298-6.0487 2.4671-1.255 5.9493-1.5894 9.0392-1.6006 0.2074-0.7733 0.1311-1.4831-0.0641-2.2651l-51.142-0.2802c-0.5094 1.1614-0.4991 0.8213-0.6215 2.4044z"/><path d="m327.91 596.97c15.076-17.404 39.019-105.67 51.366-127.48l3.2011-3.0356c1.111-0.6447 3.1384-1.5829 4.3326-2.1278 5.7164-2.6082 8.0856-1.3541 10.414-2.4515 0.7599-2.7418-1.7897-1.8903-4.1998-1.8669-2.2305 0.0216-4.4618 0.0153-6.6926 0.0199-5.2846 0.0112-37.37-0.1703-39.561 0.0554-2.8228 4.281 7.9444-0.5591 14.289 8.7234 9.3883 16.542-26.549 94.526-29.447 110.18-1.0611 3.0234-2.1193 6.0697-3.1545 9.0754-1.0568 3.0683-3.0275 6.2983-0.5487 8.9039z"/></g><path d="m393.42 736.48h1.8522v-5.2206h3.5274v5.2206h2.7074v3.1794h-2.7074v10.128c0 0.4367 0.0826 0.7727 0.2536 1.0089 0.1771 0.2359 0.4306 0.3538 0.761 0.3538h1.6928v3.3565h-2.0349c-1.4512 0-2.5189-0.4013-3.1914-1.2034s-1.0085-1.9821-1.0085-3.5512v-10.092h-1.8522z"/><path d="m388.08 749.78c0 0.4367 0.1002 0.7727 0.289 1.0089 0.1887 0.2359 0.4543 0.3538 0.8025 0.3538h1.6573v3.3565h-2.0703c-1.3389 0-2.3712-0.419-3.1029-1.2448-0.7312-0.8315-1.097-1.9994-1.097-3.5098v-20.462h3.5214z"/><path d="m368.4 747.38c0 1.2564 0.3244 2.2239 0.9615 2.9081s1.5398 1.0323 2.7077 1.0323c1.1502 0 2.0408-0.3067 2.6779-0.9204 0.6311-0.6074 0.9498-1.4806 0.9498-2.6071v-11.32h3.5038v17.938h-3.5038v-2.3677c-0.3701 0.6686-0.8871 1.2458-1.5575 1.7306-0.8315 0.5957-1.8461 0.8967-3.0554 0.8967-1.9821 0-3.5155-0.6371-4.5892-1.9112-1.0794-1.2742-1.6162-3.0672-1.6162-5.3796v-10.907h3.5214z"/><path d="m352.87 754.67c-1.0617 0-2.0525-0.1062-2.9789-0.3127-0.9317-0.2065-1.799-0.5192-2.6011-0.9321-0.8081-0.4129-1.5515-0.9317-2.2296-1.5571l2.0879-2.5717c0.9675 0.7373 1.929 1.2915 2.8844 1.6574 0.9615 0.3714 1.9052 0.5545 2.8373 0.5545 1.3921 0 2.4421-0.2181 3.1383-0.6487 0.6959-0.4307 1.044-1.0798 1.044-1.9467 0-0.5723-0.1887-1.0086-0.5723-1.2919-0.3775-0.2889-0.8492-0.4837-1.4158-0.5839-0.5662-0.0946-1.3567-0.1828-2.3829-0.2656-0.0942 0-0.1948 0-0.295-6e-3 -0.1063-6e-3 -0.2005-0.0177-0.295-0.0297-0.0471 0-0.0942 0-0.1356-6e-3 -0.0471-6e-3 -0.0942-0.0121-0.1413-0.0121-1.1623-0.0881-2.1475-0.2592-2.9553-0.5071-0.8024-0.2479-1.4749-0.7135-2.0114-1.3921-0.5369-0.6785-0.8025-1.6516-0.8025-2.9198 0-1.2681 0.2596-2.3241 0.7787-3.1616 0.5132-0.8436 1.2859-1.4746 2.3122-1.8936 1.0266-0.4189 2.3124-0.631 3.8518-0.631 0.9381 0 1.8288 0.0885 2.6723 0.2595 0.8492 0.1711 1.6573 0.4307 2.4301 0.7667 0.7727 0.3421 1.516 0.7727 2.2299 1.2919l-2.1294 2.5717c-0.8966-0.5779-1.7816-1.0086-2.6485-1.2975-0.8733-0.2833-1.7225-0.4307-2.5544-0.4307-1.1973 0-2.0939 0.2065-2.6956 0.6134-0.5956 0.4129-0.8967 1.0263-0.8967 1.8404 0 0.4838 0.1711 0.8496 0.5132 1.0911 0.3364 0.2419 0.767 0.4012 1.2862 0.4837 0.5188 0.0769 1.2564 0.1477 2.2119 0.2065 0.0648 0.012 0.1416 0.0177 0.2125 0.0177 0.0765 0 0.1533 6e-3 0.2358 0.0177h0.1063c0.0293 0 0.0648 6e-3 0.1002 0.0177 1.2564 0.0769 2.3241 0.2479 3.2087 0.5015 0.879 0.2535 1.6163 0.755 2.218 1.5043 0.6016 0.749 0.8966 1.8284 0.8966 3.2442 0 1.2919-0.2773 2.3596-0.8258 3.2088-0.5546 0.8435-1.3861 1.4806-2.5009 1.9112-1.1091 0.4246-2.5072 0.6371-4.1883 0.6371z"/><path d="m326.75 736.48h3.5215v2.4963c0.4954-0.7809 1.0971-1.4073 1.811-1.8769 0.8907-0.5839 1.8759-0.8789 2.9613-0.8789 1.9463 0 3.4506 0.637 4.5183 1.9109 1.0677 1.2741 1.5986 3.0735 1.5986 5.3973v10.889h-3.5275v-10.871c0-1.2682-0.3244-2.2473-0.9852-2.9376-0.6548-0.6898-1.5748-1.0379-2.7605-1.0379-1.1562 0-2.0408 0.3067-2.6722 0.92-0.6251 0.6077-0.9438 1.469-0.9438 2.5721v11.355h-3.5215z"/><path d="m314.34 751.32c1.2327 0 2.1825-0.3896 2.8606-1.1623 0.6725-0.7727 1.0089-1.8521 1.0089-3.2442v-2.9729c0-1.3981-0.3364-2.4715-1.0089-3.2325-0.6781-0.761-1.6279-1.1442-2.8606-1.1442-1.2328 0-2.1886 0.3832-2.8611 1.1442s-1.0085 1.8344-1.0085 3.2325v2.9729c0 1.3921 0.336 2.4715 1.0085 3.2442s1.6283 1.1623 2.8611 1.1623zm0 3.3504c-1.5572 0-2.8844-0.3067-3.9936-0.9144-1.1031-0.6133-1.9523-1.504-2.5306-2.6719-0.5839-1.1683-0.8729-2.5777-0.8729-4.2237v-2.9198c0-1.6279 0.289-3.02 0.8729-4.1763 0.5783-1.1562 1.4275-2.0408 2.5306-2.6425 1.1092-0.6077 2.4364-0.9083 3.9936-0.9083 1.5514 0 2.8844 0.3006 3.9935 0.9083 1.1028 0.6017 1.9463 1.4863 2.5303 2.6425 0.5783 1.1563 0.8732 2.5484 0.8732 4.1763v2.9729c0 1.634-0.2949 3.0321-0.8732 4.1883-0.584 1.1559-1.4275 2.0409-2.5303 2.6542-1.1091 0.6077-2.4421 0.9144-3.9935 0.9144z"/><path d="m294.14 754.67c-1.7398 0-3.2676-0.3835-4.5892-1.1562-1.3212-0.7728-2.3415-1.8698-3.0671-3.2857-0.7256-1.4154-1.0914-3.0614-1.0914-4.9252v-6.8956c0-1.8642 0.3658-3.5098 1.0914-4.9253 0.7256-1.4158 1.7459-2.5129 3.0671-3.2916 1.3216-0.7788 2.8494-1.168 4.5892-1.168 1.4395 0 2.7665 0.3127 3.9758 0.9261 1.2094 0.6194 2.218 1.4866 3.0321 2.6191 0.8138 1.1265 1.3623 2.4361 1.6517 3.9227h-3.6161c-0.2181-0.7847-0.5839-1.4866-1.0971-2.0999-0.5131-0.6194-1.1148-1.0915-1.805-1.4275-0.6902-0.3305-1.4037-0.5015-2.1414-0.5015-1.0263 0-1.9229 0.2479-2.6956 0.7433-0.7727 0.4955-1.3744 1.1913-1.799 2.0823-0.4246 0.8963-0.6371 1.9346-0.6371 3.1203v6.8956c0 1.1739 0.2125 2.2119 0.6371 3.1085 0.4246 0.9024 1.0263 1.5926 1.799 2.0823 0.7727 0.4894 1.6693 0.7373 2.6956 0.7373 0.7493 0 1.4629-0.1533 2.1531-0.466 0.6842-0.3127 1.2802-0.7727 1.7933-1.3861 0.5132-0.6077 0.879-1.3333 1.0971-2.1768h3.6161c-0.2894 1.4866-0.8436 2.7962-1.6637 3.9227-0.8138 1.1325-1.8284 2.0054-3.0378 2.6191-1.209 0.6194-2.5306 0.9261-3.9581 0.9261z"/><path d="m234.49 754.67c-2.2119 0-3.8636-0.46-4.9546-1.3744-1.0971-0.9143-1.6457-2.3064-1.6457-4.1706 0-1.7752 0.5011-3.1085 1.504-3.9932 1.0029-0.8906 2.5186-1.3333 4.5477-1.3333h5.0967l0.2419 2.8373h-5.3208c-0.9261 0-1.6103 0.2008-2.0703 0.6137-0.4543 0.4069-0.6785 1.0323-0.6785 1.8755 0 0.9087 0.301 1.5812 0.9083 2.0175 0.6017 0.4423 1.5221 0.6608 2.7548 0.6608 1.345 0 2.3536-0.1477 3.0144-0.4366 0.6604-0.283 0.9969-0.7373 0.9969-1.345l0.3598 2.5246c-0.3127 0.4837-0.6963 0.8789-1.1503 1.1916-0.4543 0.3067-0.9791 0.5429-1.5808 0.6962-0.596 0.1591-1.2742 0.2359-2.0235 0.2359z"/><path d="m238.88 743.04c0-1.174-0.3188-2.0883-0.9438-2.7371-0.6314-0.6488-1.516-0.9792-2.6723-0.9792-0.7135 0-1.4154 0.1119-2.1 0.3304-0.6841 0.2182-1.2915 0.5248-1.8227 0.914l-2.5717-1.7635c0.6785-0.8142 1.5748-1.4513 2.684-1.9053 1.1148-0.4543 2.3475-0.6841 3.7102-0.6841 1.4867 0 2.7548 0.2595 3.8165 0.7844 1.0617 0.5248 1.8698 1.2858 2.4183 2.2827 0.5546 0.9969 0.8319 2.2002 0.8319 3.6043v11.526h-3.3504z"/><path d="m219.87 736.48h3.5214v17.938h-3.5214z"/><path d="m219.87 729.29h3.5214v3.5275h-3.5214z"/><path d="m209.48 754.67c-1.6339 0-3.032-0.3067-4.1879-0.9144-1.1562-0.6133-2.0412-1.4983-2.6546-2.6662-0.6077-1.1619-0.9143-2.566-0.9143-4.2117v-2.9552c0-1.628 0.3066-3.014 0.9143-4.1646 0.6134-1.1559 1.4984-2.0348 2.6546-2.6365 1.1559-0.6077 2.554-0.9083 4.1879-0.9083 0.9321 0 1.8111 0.1119 2.6369 0.336 0.8258 0.2242 1.5631 0.5486 2.2236 0.9792 0.6548 0.4246 1.2033 0.9438 1.64 1.5515l-2.5423 2.2827c-0.5075-0.578-1.0971-1.0206-1.7817-1.333-0.6781-0.307-1.386-0.466-2.1233-0.466-1.3567 0-2.4127 0.3832-3.1617 1.1442-0.7494 0.761-1.1208 1.8287-1.1208 3.2148v2.9552c0 1.4158 0.3714 2.5069 1.1091 3.2796 0.743 0.7727 1.805 1.1623 3.1734 1.1623 0.7489 0 1.4629-0.1711 2.141-0.5015 0.6846-0.3361 1.2685-0.8081 1.764-1.4215l2.5423 2.4538c-0.4484 0.6017-1.0029 1.1088-1.6577 1.5338-0.6605 0.4185-1.3978 0.7373-2.2236 0.9554s-1.6931 0.3304-2.6192 0.3304z"/><path d="m193.54 743.04c0-1.174-0.3187-2.0883-0.9437-2.7371-0.6315-0.6488-1.5161-0.9792-2.6723-0.9792-0.7136 0-1.4155 0.1119-2.1 0.3304-0.6842 0.2182-1.2915 0.5248-1.8227 0.914l-2.5717-1.7635c0.6785-0.8142 1.5748-1.4513 2.6839-1.9053 1.1148-0.4543 2.3476-0.6841 3.7103-0.6841 1.4866 0 2.7548 0.2595 3.8164 0.7844 1.0617 0.5248 1.8698 1.2858 2.4184 2.2827 0.5546 0.9969 0.8318 2.2002 0.8318 3.6043v11.526h-3.3504v-1.3818c-0.2341 0.2716-0.4975 0.5078-0.7904 0.7093-0.4544 0.3067-0.9792 0.5429-1.5808 0.6962-0.596 0.1591-1.2742 0.2359-2.0235 0.2359-2.2119 0-3.8636-0.46-4.9547-1.3744-1.0971-0.9143-1.6456-2.3064-1.6456-4.1706 0-1.7752 0.5011-3.1085 1.504-3.9932 1.0029-0.8906 2.5185-1.3333 4.5477-1.3333h4.9433zm0 6.9838v-3.3859h-4.9256c-0.926 0-1.6102 0.2008-2.0702 0.6137-0.4544 0.4069-0.6786 1.0323-0.6786 1.8755 0 0.9087 0.3011 1.5812 0.9084 2.0175 0.6017 0.4423 1.522 0.6608 2.7548 0.6608 1.345 0 2.3535-0.1477 3.0143-0.4366 0.6605-0.283 0.9969-0.7373 0.9969-1.345z"/><path d="m173.02 754.67c-1.634 0-3.0321-0.3067-4.188-0.9144-1.1562-0.6133-2.0412-1.4983-2.6545-2.6662-0.6077-1.1619-0.9144-2.566-0.9144-4.2117v-2.9552c0-1.628 0.3067-3.014 0.9144-4.1646 0.6133-1.1559 1.4983-2.0348 2.6545-2.6365 1.1559-0.6077 2.554-0.9083 4.188-0.9083 0.932 0 1.811 0.1119 2.6368 0.336 0.8259 0.2242 1.5632 0.5486 2.2236 0.9792 0.6548 0.4246 1.2033 0.9438 1.64 1.5515l-2.5423 2.2827c-0.5075-0.578-1.0971-1.0206-1.7816-1.333-0.6782-0.307-1.3861-0.466-2.1234-0.466-1.3567 0-2.4127 0.3832-3.1617 1.1442-0.7493 0.761-1.1208 1.8287-1.1208 3.2148v2.9552c0 1.4158 0.3715 2.5069 1.1091 3.2796 0.743 0.7727 1.805 1.1623 3.1734 1.1623 0.749 0 1.4629-0.1711 2.1411-0.5015 0.6845-0.3361 1.2685-0.8081 1.7639-1.4215l2.5423 2.4538c-0.4483 0.6017-1.0029 1.1088-1.6577 1.5338-0.6605 0.4185-1.3978 0.7373-2.2236 0.9554s-1.6931 0.3304-2.6191 0.3304z"/><path d="m153.37 751.32c1.2327 0 2.1825-0.3896 2.8606-1.1623 0.6725-0.7727 1.009-1.8521 1.009-3.2442v-2.9729c0-1.3981-0.3365-2.4715-1.009-3.2325-0.6781-0.761-1.6279-1.1442-2.8606-1.1442-1.2328 0-2.1885 0.3832-2.861 1.1442s-1.0086 1.8344-1.0086 3.2325v2.9729c0 1.3921 0.3361 2.4715 1.0086 3.2442s1.6282 1.1623 2.861 1.1623zm0 3.3504c-1.5571 0-2.8844-0.3067-3.9936-0.9144-1.1031-0.6133-1.9523-1.504-2.5306-2.6719-0.5839-1.1683-0.8729-2.5777-0.8729-4.2237v-2.9198c0-1.6279 0.289-3.02 0.8729-4.1763 0.5783-1.1562 1.4275-2.0408 2.5306-2.6425 1.1092-0.6077 2.4365-0.9083 3.9936-0.9083 1.5514 0 2.8844 0.3006 3.9935 0.9083 1.1028 0.6017 1.9463 1.4863 2.5303 2.6425 0.5783 1.1563 0.8733 2.5484 0.8733 4.1763v2.9729c0 1.634-0.295 3.0321-0.8733 4.1883-0.584 1.1559-1.4275 2.0409-2.5303 2.6542-1.1091 0.6077-2.4421 0.9144-3.9935 0.9144z"/><path d="m93.998 729.29h3.0023l9.2669 25.128h-3.8048l-1.895-5.5152h-10.138l-1.8936 5.5152h-3.8047zm5.4182 16.263-3.9199-11.408-3.9167 11.408z"/><path d="m139.36 736.48h3.6808l-6.7423 17.938h-2.6602l-6.7423-17.938h3.6865l4.3888 12.806z"/><path d="m115.41 754.73c-1.3152 0-2.4361-0.289-3.3621-0.8552-0.9261-0.5723-1.634-1.4041-2.1177-2.5012-0.4838-1.0911-0.7256-2.4067-0.7256-3.9404v-3.9521c0-1.5455 0.2362-2.8667 0.7079-3.9582 0.472-1.0971 1.1619-1.9286 2.0646-2.5008 0.9023-0.5663 1.9877-0.8553 3.2562-0.8553 1.0617 0 2.0348 0.2773 2.9138 0.8315 0.6937 0.4377 1.2844 1.0111 1.7696 1.7268v-9.4362h3.5275v25.128h-3.5275v-2.299c-0.3566 0.6636-0.8599 1.2334-1.51 1.709-0.8142 0.6017-1.8111 0.9027-2.9967 0.9027zm4.5067-11.738v-0.0354c-4e-3 -0.7401-0.1399-1.3828-0.4129-1.9172-0.2773-0.5365-0.6782-0.9495-1.2034-1.2328-0.5248-0.2833-1.1562-0.4246-1.9052-0.4246-1.1679 0-2.0646 0.3655-2.7077 1.0911-0.6367 0.7256-0.9554 1.7462-0.9554 3.0555v3.905c0 1.3035 0.3187 2.3124 0.9554 3.0203 0.6431 0.7076 1.5398 1.0617 2.7077 1.0617 0.749 0 1.3804-0.1477 1.9052-0.4423 0.5252-0.295 0.9261-0.7139 1.2034-1.2685 0.273-0.5457 0.4086-1.1945 0.4129-1.9516v-0.0361z"/><path d="m419.07 708.85c1.2327 0 2.1825-0.3895 2.8607-1.1622 0.6725-0.7728 1.0089-1.8521 1.0089-3.2442v-2.973c0-1.3981-0.3364-2.4714-1.0089-3.2325-0.6782-0.761-1.628-1.1442-2.8607-1.1442s-2.1885 0.3832-2.861 1.1442c-0.6725 0.7611-1.0086 1.8344-1.0086 3.2325v2.973c0 1.3921 0.3361 2.4714 1.0086 3.2442 0.6725 0.7727 1.6283 1.1622 2.861 1.1622zm0 3.3504c-1.5571 0-2.8844-0.3066-3.9935-0.9143-1.1031-0.6134-1.9523-1.504-2.5306-2.6719-0.584-1.1683-0.873-2.5778-0.873-4.2238v-2.9198c0-1.6279 0.289-3.02 0.873-4.1762 0.5783-1.1563 1.4275-2.0409 2.5306-2.6425 1.1091-0.6077 2.4364-0.9084 3.9935-0.9084 1.5515 0 2.8844 0.3007 3.9936 0.9084 1.1027 0.6016 1.9463 1.4862 2.5302 2.6425 0.5783 1.1562 0.8733 2.5483 0.8733 4.1762v2.973c0 1.6339-0.295 3.032-0.8733 4.1883-0.5839 1.1558-1.4275 2.0408-2.5302 2.6542-1.1092 0.6077-2.4421 0.9143-3.9936 0.9143z"/><path d="m403.3 694h3.5215v17.938h-3.5215z"/><path d="m403.3 686.81h3.5215v3.5275h-3.5215z"/><path d="m388.2 694h3.5215v2.5016c0.4929-0.7731 1.0868-1.3967 1.7816-1.8706 0.8786-0.5956 1.8461-0.8906 2.9021-0.8906 0.8198 0 1.5632 0.1179 2.2236 0.3538 0.6608 0.2358 1.2388 0.5839 1.7342 1.044l-2.2944 3.1145c-0.3127-0.3835-0.7079-0.6725-1.1796-0.8669-0.4721-0.1947-1.0146-0.295-1.64-0.295-1.1148 0-1.9821 0.3127-2.6015 0.9261-0.6133 0.6194-0.926 1.4746-0.926 2.566v11.355h-3.5215z"/><path d="m374.13 688.76 4.943-6.1346 2.5363 2.1117-5.2674 5.8045z"/><path d="m362.5 707.31c0 0.4366 0.1003 0.7727 0.289 1.0089 0.1888 0.2358 0.4544 0.3537 0.8025 0.3537h1.6573v3.3565h-2.0702c-1.339 0-2.3713-0.4189-3.1029-1.2448-0.7313-0.8315-1.0971-1.9994-1.0971-3.5098v-20.462h3.5214z"/><path d="m350.27 700.57c0-1.1739-0.3188-2.0883-0.9438-2.7371-0.6314-0.6487-1.516-0.9791-2.6723-0.9791-0.7135 0-1.4154 0.1119-2.1 0.3304-0.6841 0.2181-1.2915 0.5248-1.8227 0.914l-2.5717-1.7636c0.6785-0.8141 1.5749-1.4512 2.684-1.9052 1.1148-0.4544 2.3475-0.6842 3.7102-0.6842 1.4867 0 2.7548 0.2596 3.8165 0.7844s1.8698 1.2859 2.4183 2.2827c0.5546 0.9969 0.8319 2.2002 0.8319 3.6044v11.526h-3.3504v-1.3819c-0.2341 0.2717-0.4976 0.5079-0.7905 0.7094-0.4543 0.3066-0.9791 0.5429-1.5808 0.6962-0.596 0.159-1.2742 0.2358-2.0235 0.2358-2.2119 0-3.8636-0.46-4.9546-1.3743-1.0971-0.9144-1.6457-2.3065-1.6457-4.1706 0-1.7753 0.5011-3.1086 1.504-3.9932 1.0029-0.8907 2.5186-1.3333 4.5478-1.3333h4.9433zm0 6.9838v-3.3858h-4.9256c-0.9261 0-1.6103 0.2008-2.0703 0.6137-0.4543 0.4069-0.6785 1.0323-0.6785 1.8755 0 0.9087 0.301 1.5812 0.9083 2.0174 0.6017 0.4424 1.5221 0.6609 2.7548 0.6609 1.345 0 2.3536-0.1477 3.0144-0.4367 0.6604-0.2829 0.9969-0.7373 0.9969-1.345z"/><path d="m317.99 686.81h3.8342l6.0344 19.702 6.0284-19.702h3.8402l-8.1936 25.128h-3.3504z"/><path d="m292.8 701.3c-0.4033 0.17-0.7571 0.3945-1.0617 0.6739-0.7844 0.7136-1.1739 1.7225-1.1739 3.02 0 1.2802 0.4189 2.2771 1.2504 2.985 0.8379 0.7075 2.0175 1.0617 3.5335 1.0617 1.4452 0 2.678-0.3896 3.7103-1.1563l0.0116-9e-3 -5.6745-5.9193c-0.2061-0.2167-0.4048-0.4352-0.5957-0.6562zm8.3217 3.9184c0.1013-0.2227 0.1962-0.4547 0.2844-0.6962 0.5369-1.4689 0.8081-3.2445 0.8081-5.3148h3.3508c0 2.7428-0.4306 5.0846-1.2862 7.0253-0.2366 0.5326-0.5025 1.0305-0.7979 1.494l3.9656 4.216h-4.4769l-1.708-1.7813c-0.239 0.1824-0.4876 0.3534-0.7461 0.5131-1.6457 1.0203-3.6278 1.5277-5.9399 1.5277-1.5691 0-2.9081-0.2833-4.0229-0.8495-1.1091-0.5603-1.9583-1.3801-2.5366-2.4598-0.584-1.0794-0.873-2.3769-0.873-3.899 0-2.0469 0.5663-3.6925 1.6931-4.9252 0.5727-0.6268 1.2675-1.1194 2.0827-1.4778-0.3627-0.6796-0.6531-1.3772-0.8737-2.0912-0.3006-0.9731-0.4483-1.964-0.4483-2.9786 0-2.2002 0.5843-3.905 1.7639-5.1083 1.174-1.2033 2.8313-1.805 4.9727-1.805 2.1351 0 3.7867 0.5779 4.9547 1.7402 1.1679 1.1559 1.7518 2.7959 1.7518 4.9136v0.3481h-3.5214v-0.3481c0-1.0263-0.2773-1.8167-0.8315-2.3773-0.5546-0.5603-1.339-0.8375-2.3536-0.8375-1.0206 0-1.817 0.3006-2.3712 0.9083-0.5606 0.6017-0.8379 1.4569-0.8379 2.566 0 0.6665 0.1062 1.3567 0.3244 2.0763 0.2185 0.7136 0.5429 1.4215 0.9675 2.1234 0.4306 0.7022 0.9381 1.3687 1.5397 2.0058z"/><path d="m271.43 707.31c0 0.4366 0.1003 0.7727 0.289 1.0089 0.1888 0.2358 0.4544 0.3537 0.8025 0.3537h1.6573v3.3565h-2.0702c-1.339 0-2.3713-0.4189-3.1029-1.2448-0.7313-0.8315-1.0971-1.9994-1.0971-3.5098v-20.462h3.5214z"/><path d="m218.62 694h3.5214v2.4963c0.4955-0.7809 1.0971-1.4074 1.8111-1.8769 0.8906-0.584 1.8758-0.879 2.9612-0.879 1.2561 0 2.3298 0.283 3.2148 0.8552 0.8846 0.5723 1.5631 1.4038 2.0288 2.4952 0.0283 0.0666 0.0556 0.1339 0.0822 0.2022 0.5499-1.0985 1.2695-1.9579 2.1478-2.5734 0.926-0.6548 1.9523-0.9792 3.0671-0.9792 1.2919 0 2.395 0.283 3.3093 0.8552 0.9144 0.5723 1.6163 1.4038 2.094 2.4952 0.4777 1.0971 0.7136 2.4184 0.7136 3.9578v10.889h-3.5215v-10.872c0-1.2681-0.33-2.2473-0.9848-2.9375-0.6608-0.6899-1.5809-1.038-2.7665-1.038-1.0974 0-1.941 0.3361-2.5426 1.0026-0.5957 0.6725-0.8964 1.6162-0.8964 2.8373l-3e-4 -3e-3 3e-4 0.1204v10.889h-3.5274v-10.872c0-1.2681-0.3127-2.2473-0.9321-2.9375-0.6254-0.6899-1.504-1.038-2.6425-1.038-1.1563 0-2.0409 0.3067-2.6723 0.9201-0.6251 0.6077-0.9438 1.4689-0.9438 2.572v11.355h-3.5214z"/><path d="m203.52 694h3.5215v2.5016c0.493-0.7731 1.0868-1.3967 1.7817-1.8706 0.8786-0.5956 1.846-0.8906 2.9021-0.8906 0.8198 0 1.5631 0.1179 2.2235 0.3538 0.6608 0.2358 1.2388 0.5839 1.7342 1.044l-2.2944 3.1145c-0.3127-0.3835-0.7079-0.6725-1.1796-0.8669-0.4721-0.1947-1.0146-0.295-1.64-0.295-1.1148 0-1.9821 0.3127-2.6014 0.9261-0.6134 0.6194-0.9261 1.4746-0.9261 2.566v11.355h-3.5215z"/><path d="m191.88 712.2c-1.6577 0-3.0791-0.3127-4.2531-0.932-1.1736-0.6254-2.0702-1.5394-2.6839-2.7428-0.6194-1.2033-0.9261-2.6545-0.9261-4.3593v-2.0232c0-1.7756 0.295-3.2916 0.8906-4.5477 0.59-1.2565 1.4513-2.2123 2.5838-2.8671 1.1268-0.6547 2.4892-0.9848 4.076-0.9848 1.4983 0 2.7782 0.3775 3.8402 1.1205 1.0557 0.7493 1.8638 1.8347 2.4244 3.2502 0.5602 1.4158 0.8375 3.1206 0.8375 5.1027v1.1735l-8.3387-0.1632h-2.9634v4e-3c0 1.4863 0.3952 2.6305 1.174 3.4209 0.7844 0.7965 1.8995 1.1977 3.3387 1.1977 0.7136 0 1.4215-0.1477 2.1234-0.4366 0.7019-0.283 1.3333-0.6902 1.8875-1.209l2.3125 2.3181c-0.885 0.8492-1.8819 1.51-2.9907 1.9761-1.1031 0.466-2.2179 0.7018-3.3327 0.7018zm-2.7792-10.644v-3e-3h6.2182c-0.1063-1.4629-0.4838-2.601-1.1325-3.4092-0.6492-0.8141-1.5221-1.221-2.6192-1.221-1.3329 0-2.3712 0.4363-3.1025 1.3152-0.67 0.7993-1.033 1.9053-1.0897 3.3182z"/><path d="m175.66 686.81h3.5275v25.128h-3.5275zm-4.5067 25.441c-1.3152 0-2.436-0.289-3.3621-0.8553-0.926-0.5722-1.634-1.4041-2.1177-2.5012-0.4837-1.0911-0.7256-2.4067-0.7256-3.9404v-3.9521c0-1.5454 0.2362-2.8667 0.7079-3.9581 0.4721-1.0971 1.1619-1.9286 2.0646-2.5009 0.9023-0.5662 1.9877-0.8552 3.2562-0.8552 1.0617 0 2.0348 0.2773 2.9138 0.8315 0.8789 0.5546 1.5925 1.3273 2.1354 2.3302l-0.3658 3.6631c0-0.755-0.1356-1.4098-0.4129-1.9527-0.2773-0.5365-0.6782-0.9494-1.2034-1.2327-0.5248-0.2833-1.1562-0.4246-1.9052-0.4246-1.1679 0-2.0646 0.3654-2.7077 1.0911-0.6367 0.7256-0.9554 1.7462-0.9554 3.0554v3.905c0 1.3036 0.3187 2.3125 0.9554 3.0204 0.6431 0.7075 1.5398 1.0617 2.7077 1.0617 0.749 0 1.3804-0.1477 1.9052-0.4423 0.5252-0.295 0.9261-0.714 1.2034-1.2685 0.2773-0.5543 0.4129-1.2151 0.4129-1.9878l0.2419 3.7811c-0.3538 0.8906-0.9378 1.6339-1.7519 2.2296-0.8142 0.6017-1.8111 0.9027-2.9967 0.9027z"/><path d="m153.05 708.85c1.2327 0 2.1825-0.3895 2.8606-1.1622 0.6725-0.7728 1.009-1.8521 1.009-3.2442v-2.973c0-1.3981-0.3365-2.4714-1.009-3.2325-0.6781-0.761-1.6279-1.1442-2.8606-1.1442s-2.1885 0.3832-2.861 1.1442c-0.6725 0.7611-1.0086 1.8344-1.0086 3.2325v2.973c0 1.3921 0.3361 2.4714 1.0086 3.2442 0.6725 0.7727 1.6283 1.1622 2.861 1.1622zm0 3.3504c-1.5571 0-2.8844-0.3066-3.9936-0.9143-1.1031-0.6134-1.9523-1.504-2.5306-2.6719-0.5839-1.1683-0.8729-2.5778-0.8729-4.2238v-2.9198c0-1.6279 0.289-3.02 0.8729-4.1762 0.5783-1.1563 1.4275-2.0409 2.5306-2.6425 1.1092-0.6077 2.4365-0.9084 3.9936-0.9084 1.5514 0 2.8844 0.3007 3.9935 0.9084 1.1028 0.6016 1.9463 1.4862 2.5303 2.6425 0.5783 1.1562 0.8733 2.5483 0.8733 4.1762v2.973c0 1.6339-0.295 3.032-0.8733 4.1883-0.584 1.1558-1.4275 2.0408-2.5303 2.6542-1.1091 0.6077-2.4421 0.9143-3.9935 0.9143z"/><path d="m136.66 700.94 5.796 10.996h-4.1819l-5.3644-10.63h-5.2475v10.63h-3.5275v-25.146h9.9748c1.4509 0 2.725 0.3006 3.8282 0.9023 1.0971 0.596 1.9526 1.4452 2.5543 2.5483 0.6073 1.0971 0.9083 2.3713 0.9083 3.8104 0 1.4396-0.3066 2.7077-0.9143 3.8108-0.6134 1.0971-1.469 1.9467-2.5661 2.5484-0.3983 0.2149-0.8183 0.3916-1.2599 0.5294zm-8.9978-2.9836h6.5829c0.6665 0 1.2625-0.159 1.7813-0.4837 0.5192-0.3244 0.9204-0.7784 1.2033-1.3744 0.2773-0.5956 0.419-1.2738 0.419-2.0469 0-0.7727-0.1417-1.4568-0.419-2.0465-0.2829-0.596-0.6841-1.056-1.1973-1.3744-0.5074-0.3247-1.1091-0.4837-1.7873-0.4837h-6.5829z"/><path d="m455.36 754.67c-2.2119 0-3.8635-0.46-4.9546-1.3744-1.0971-0.9143-1.6456-2.3064-1.6456-4.1706 0-1.7752 0.5011-3.1085 1.504-3.9932 1.0029-0.8906 2.5185-1.3333 4.5477-1.3333h4.9433v-0.7606c0-1.174-0.3187-2.0883-0.9437-2.7371-0.6315-0.6488-1.5161-0.9792-2.6723-0.9792-0.7136 0-1.4155 0.1119-2.1 0.3304-0.6842 0.2182-1.2915 0.5248-1.8227 0.914l-2.5717-1.7635c0.6785-0.8142 1.5748-1.4513 2.6839-1.9053 1.1148-0.4543 2.3476-0.6841 3.7103-0.6841 1.4866 0 2.7547 0.2595 3.8164 0.7844 1.0617 0.5248 1.8698 1.2858 2.4184 2.2827 0.5546 0.9969 0.8318 2.2002 0.8318 3.6043v11.526h-3.3504v-1.3818c-0.2341 0.2716-0.4975 0.5078-0.7904 0.7093-0.4544 0.3067-0.9792 0.5429-1.5808 0.6962-0.596 0.1591-1.2742 0.2359-2.0236 0.2359zm4.3948-8.0342h-4.9256c-0.926 0-1.6102 0.2008-2.0702 0.6137-0.4544 0.4069-0.6786 1.0323-0.6786 1.8755 0 0.9087 0.3011 1.5812 0.9084 2.0175 0.6017 0.4423 1.522 0.6608 2.7548 0.6608 1.345 0 2.3535-0.1477 3.0143-0.4366 0.6605-0.283 0.9969-0.7373 0.9969-1.345z"/><path d="m440.75 736.48h3.5215v17.938h-3.5215z"/><path d="m440.75 729.29h3.5215v3.5275h-3.5215z"/><path d="m425.64 736.48h3.5215v2.5016c0.4929-0.773 1.0868-1.3967 1.7816-1.8705 0.8786-0.5956 1.8461-0.8906 2.9021-0.8906 0.8198 0 1.5631 0.1179 2.2236 0.3537 0.6608 0.2359 1.2387 0.584 1.7342 1.044l-2.2944 3.1146c-0.3127-0.3835-0.7079-0.6725-1.1796-0.8669-0.4721-0.1948-1.0146-0.295-1.64-0.295-1.1148 0-1.9821 0.3127-2.6015 0.926-0.6133 0.6194-0.926 1.4746-0.926 2.5661v11.355h-3.5215z"/><path d="m413.23 751.32c1.2328 0 2.1825-0.3896 2.8607-1.1623 0.6725-0.7727 1.0089-1.8521 1.0089-3.2442v-2.9729c0-1.3981-0.3364-2.4715-1.0089-3.2325-0.6782-0.761-1.6279-1.1442-2.8607-1.1442-1.2327 0-2.1885 0.3832-2.861 1.1442s-1.0085 1.8344-1.0085 3.2325v2.9729c0 1.3921 0.336 2.4715 1.0085 3.2442s1.6283 1.1623 2.861 1.1623zm0 3.3504c-1.5571 0-2.8844-0.3067-3.9935-0.9144-1.1031-0.6133-1.9523-1.504-2.5306-2.6719-0.584-1.1683-0.8729-2.5777-0.8729-4.2237v-2.9198c0-1.6279 0.2889-3.02 0.8729-4.1763 0.5783-1.1562 1.4275-2.0408 2.5306-2.6425 1.1091-0.6077 2.4364-0.9083 3.9935-0.9083 1.5515 0 2.8844 0.3006 3.9936 0.9083 1.1027 0.6017 1.9463 1.4863 2.5302 2.6425 0.5783 1.1563 0.8733 2.5484 0.8733 4.1763v2.9729c0 1.634-0.295 3.0321-0.8733 4.1883-0.5839 1.1559-1.4275 2.0409-2.5302 2.6542-1.1092 0.6077-2.4421 0.9144-3.9936 0.9144z"/></g></g></svg>
